<svg height="512" viewBox="0 0 512 512" width="512" xmlns="http://www.w3.org/2000/svg"><g id="Flat"><path d="m464 472h-156a28 28 0 0 1 0-56h72a12.013 12.013 0 0 0 12-12v-28h16v28a28.032 28.032 0 0 1 -28 28h-72a12 12 0 0 0 0 24h156z" fill="#808080"/><path d="m480 456h16v16h-16z" fill="#808080"/><path d="m336 176-7.062 127.112a16 16 0 0 0 15.976 16.888h39.086v-144z" fill="#f8bc1e"/><path d="m184 80h-48a16 16 0 0 0 -16 16v64a16 16 0 0 0 16 16h48z" fill="#f8bc1e"/><path d="m160 176v-96l120 24v64z" fill="#4e4e4f"/><rect fill="#e3e4e2" height="224" rx="24" width="224" x="24" y="248"/><path d="m464 176h16v16h-16z" fill="#e3e4e2"/><path d="m480 160h-16v-4.946a84 84 0 0 0 -70.554-82.917l-90.727-14.712 2.562-15.794 90.726 14.712a100 100 0 0 1 83.993 98.711z" fill="#e3e4e2"/><path d="m440 376v-220.946a60 60 0 0 0 -50.4-59.226l-245.6-39.828v25.992a16 16 0 0 0 13.885 15.859l83.905 11.188a25.593 25.593 0 0 1 22.21 25.368 25.593 25.593 0 0 1 -25.593 25.593h-78.407a16 16 0 0 0 -16 16v24h193.723a29.042 29.042 0 0 1 29.017 30.251l-6.046 145.083a16 16 0 0 0 15.987 16.666h47.319a16 16 0 0 0 16-16z" fill="#686869"/><path d="m368 120h16v24h-16z" fill="#57c3c1"/><path d="m336 120h16v24h-16z" fill="#57c3c1"/><path d="m304 120h16v24h-16z" fill="#57c3c1"/><path d="m366.333 240h22.427a18 18 0 0 1 17.96 19.2l-5.6 84a18 18 0 0 1 -17.96 16.8h-21.88z" fill="#4e4e4f"/><path d="m184 124h16v16h-16z" fill="#57c3c1"/><rect fill="#f8bc1e" height="93.638" rx="8" transform="matrix(.342 -.94 .94 .342 -13.133 93.25)" width="16" x="52" y="9.181"/><rect fill="#f8bc1e" height="16" rx="8" transform="matrix(.94 -.342 .342 .94 -64.734 32.544)" width="93.638" x="13.181" y="192"/><rect fill="#f8bc1e" height="16" rx="8" width="80" x="16" y="120"/><rect fill="#f8bc1e" height="47.42" rx="8" transform="matrix(.267 -.964 .964 .267 -50.386 113.068)" width="16" x="41.152" y="65.954"/><rect fill="#f8bc1e" height="16" rx="8" transform="matrix(.964 -.267 .267 .964 -42.66 19.183)" width="47.42" x="25.442" y="158.336"/><g fill="#808080"><path d="m104 336h-40a8 8 0 0 1 -8-8v-40a8 8 0 0 1 8-8h40a8 8 0 0 1 8 8v40a8 8 0 0 1 -8 8zm-32-16h24v-24h-24z"/><path d="m208 336h-40a8 8 0 0 1 -8-8v-40a8 8 0 0 1 8-8h40a8 8 0 0 1 8 8v40a8 8 0 0 1 -8 8zm-32-16h24v-24h-24z"/><path d="m104 440h-40a8 8 0 0 1 -8-8v-40a8 8 0 0 1 8-8h40a8 8 0 0 1 8 8v40a8 8 0 0 1 -8 8zm-32-16h24v-24h-24z"/><path d="m208 440h-40a8 8 0 0 1 -8-8v-40a8 8 0 0 1 8-8h40a8 8 0 0 1 8 8v40a8 8 0 0 1 -8 8zm-32-16h24v-24h-24z"/><path d="m136 368h-80v-16h72v-72h16v80a8 8 0 0 1 -8 8z"/><path d="m128 384h16v56h-16z"/><path d="m160 352h24v16h-24z"/><path d="m200 352h16v16h-16z"/></g></g></svg>